<svg xmlns="http://www.w3.org/2000/svg" width="250.759" height="33.395" viewBox="0 0 250.759 33.395">
  <g id="Title_Products" transform="translate(-537.465 -1142.101)">
    <g id="Group_259" data-name="Group 259" transform="matrix(0.978, 0.208, -0.208, 0.978, -2119.526, -2591.081)">
      <line id="Line_5" data-name="Line 5" x1="1.456" y2="5.918" transform="translate(3589.527 3057.112)" fill="none" stroke="#d5b49f" stroke-linecap="round" stroke-linejoin="round" stroke-width="2"/>
      <line id="Line_6" data-name="Line 6" x1="1.649" y2="3.607" transform="translate(3605.128 3051.897)" fill="none" stroke="#d5b49f" stroke-linecap="round" stroke-linejoin="round" stroke-width="2"/>
      <path id="Path_963" data-name="Path 963" d="M3658.11,3111.829q-1.554,3.75-3.387,7.376" transform="translate(-55.415 -50.941)" fill="none" stroke="#d5b49f" stroke-linecap="round" stroke-linejoin="round" stroke-width="2"/>
      <path id="Path_964" data-name="Path 964" d="M3716.8,3152.579a56.413,56.413,0,0,0,5.986-5.77" transform="translate(-108.18 -80.672)" fill="none" stroke="#d5b49f" stroke-linecap="round" stroke-linejoin="round" stroke-width="2"/>
      <line id="Line_7" data-name="Line 7" y1="1.421" x2="3.927" transform="translate(3611.955 3079.171)" fill="none" stroke="#d5b49f" stroke-linecap="round" stroke-linejoin="round" stroke-width="2"/>
      <path id="Path_965" data-name="Path 965" d="M3801.964,3211.883l3.484-1.446" transform="translate(-180.566 -134.755)" fill="none" stroke="#d5b49f" stroke-linecap="round" stroke-linejoin="round" stroke-width="2"/>
    </g>
    <g id="Group_261" data-name="Group 261" transform="matrix(-0.978, 0.208, -0.208, -0.978, 574.618, 1168.498)">
      <line id="Line_5-2" data-name="Line 5" x1="1.456" y1="5.918" transform="translate(0 17.563)" fill="none" stroke="#d5b49f" stroke-linecap="round" stroke-linejoin="round" stroke-width="2"/>
      <line id="Line_6-2" data-name="Line 6" x1="1.649" y1="3.607" transform="translate(15.601 25.088)" fill="none" stroke="#d5b49f" stroke-linecap="round" stroke-linejoin="round" stroke-width="2"/>
      <path id="Path_963-2" data-name="Path 963" d="M3.387,7.376Q1.832,3.626,0,0" transform="translate(9.781 12.328)" fill="none" stroke="#d5b49f" stroke-linecap="round" stroke-linejoin="round" stroke-width="2"/>
      <path id="Path_964-2" data-name="Path 964" d="M0,0A56.391,56.391,0,0,1,5.986,5.771" transform="translate(19.095 8.686)" fill="none" stroke="#d5b49f" stroke-linecap="round" stroke-linejoin="round" stroke-width="2"/>
      <line id="Line_7-2" data-name="Line 7" x2="3.927" y2="1.421" transform="translate(22.428 0)" fill="none" stroke="#d5b49f" stroke-linecap="round" stroke-linejoin="round" stroke-width="2"/>
      <path id="Path_965-2" data-name="Path 965" d="M0,0,3.484,1.446" transform="translate(31.872 3.464)" fill="none" stroke="#d5b49f" stroke-linecap="round" stroke-linejoin="round" stroke-width="2"/>
    </g>
  </g>
</svg>
